<svg width="197" height="40" viewBox="0 0 197 40" fill="none" xmlns="http://www.w3.org/2000/svg">
<g clip-path="url(#clip0_4_21)">
<path d="M130.959 0.0167542H165.273V6.43039H151.661V40.1717H144.855V6.43039H130.959V0.0167542Z" fill="white"/>
<path d="M74.526 0.0167542V6.43039H47.0211V16.748H69.1405V23.1616H47.0211V33.758H74.526V40.1717H40.215V6.43039H40.2122V0.0167542H74.526Z" fill="white"/>
<path d="M91.66 0.0334778H82.753L114.656 40.1884H123.589L107.635 20.1247L123.563 0.0641134L114.656 0.0780527L103.176 14.5163L91.66 0.0334778Z" fill="white"/>
<path d="M100.8 28.7164L96.3395 23.1002L82.7275 40.219H91.66L100.8 28.7164Z" fill="white"/>
<path fill-rule="evenodd" clip-rule="evenodd" d="M40.4535 40.1716L8.50755 0H0V40.1549H6.80605V8.58309L31.9034 40.1716H40.4535Z" fill="white"/>
<path d="M166.803 39.9264C166.305 39.9264 165.881 39.7515 165.526 39.4018C165.171 39.0521 164.995 38.6287 165 38.1271C164.995 37.6393 165.171 37.2206 165.526 36.8708C165.881 36.5211 166.305 36.3462 166.803 36.3462C167.283 36.3462 167.702 36.5211 168.057 36.8708C168.417 37.2206 168.597 37.6393 168.602 38.1271C168.597 38.4584 168.514 38.7621 168.348 39.0336C168.177 39.3098 167.961 39.5261 167.688 39.6825C167.421 39.8436 167.126 39.9264 166.803 39.9264Z" fill="white"/>
<path d="M178.42 23.0103H181.436V34.777C181.431 35.8584 181.2 36.7834 180.749 37.5611C180.292 38.3388 179.66 38.9324 178.849 39.3511C178.042 39.7653 177.096 39.977 176.022 39.977C175.039 39.977 174.159 39.7975 173.375 39.4478C172.591 39.0981 171.968 38.5735 171.512 37.8832C171.05 37.1929 170.824 36.3324 170.824 35.3016H173.845C173.85 35.7526 173.951 36.1437 174.145 36.4704C174.338 36.7972 174.606 37.0456 174.947 37.2205C175.293 37.3954 175.69 37.4828 176.137 37.4828C176.621 37.4828 177.036 37.3816 177.373 37.1745C177.709 36.972 177.968 36.6683 178.148 36.2633C178.323 35.863 178.415 35.366 178.42 34.777V23.0103Z" fill="white"/>
<path d="M193.846 27.612C193.772 26.8988 193.449 26.342 192.887 25.9462C192.319 25.5459 191.586 25.348 190.687 25.348C190.055 25.348 189.511 25.4447 189.059 25.6333C188.607 25.8266 188.257 26.0842 188.017 26.411C187.777 26.7377 187.657 27.1105 187.648 27.5293C187.648 27.879 187.731 28.1827 187.892 28.4358C188.054 28.6935 188.27 28.9098 188.552 29.0847C188.828 29.2641 189.137 29.4113 189.474 29.531C189.815 29.6506 190.157 29.7519 190.498 29.8347L192.07 30.2259C192.702 30.3731 193.316 30.571 193.901 30.8241C194.487 31.0726 195.017 31.3901 195.483 31.772C195.949 32.154 196.318 32.6142 196.59 33.1526C196.862 33.691 197 34.3214 197 35.0485C197 36.0287 196.751 36.8892 196.248 37.6347C195.746 38.3755 195.022 38.9554 194.072 39.3742C193.126 39.7883 191.983 40 190.636 40C189.336 40 188.201 39.7976 187.247 39.3926C186.288 38.9922 185.54 38.4032 185.001 37.6301C184.461 36.857 184.171 35.9136 184.129 34.8046H187.118C187.159 35.3844 187.344 35.8676 187.657 36.2588C187.975 36.6453 188.39 36.9306 188.898 37.1239C189.41 37.3126 189.981 37.4092 190.613 37.4092C191.273 37.4092 191.854 37.3079 192.356 37.1101C192.854 36.9122 193.246 36.6361 193.528 36.2772C193.814 35.9228 193.957 35.5041 193.961 35.0255C193.957 34.5883 193.827 34.2248 193.578 33.9394C193.325 33.6542 192.974 33.4149 192.527 33.2216C192.075 33.0283 191.549 32.8535 190.95 32.7016L189.041 32.2138C187.662 31.8595 186.569 31.3211 185.771 30.5986C184.969 29.8761 184.572 28.919 184.572 27.7179C184.572 26.7332 184.839 25.868 185.379 25.1271C185.914 24.3863 186.647 23.811 187.574 23.4015C188.506 22.9873 189.557 22.7848 190.728 22.7848C191.918 22.7848 192.96 22.9873 193.86 23.4015C194.759 23.811 195.465 24.3817 195.976 25.1087C196.488 25.8358 196.756 26.6687 196.77 27.612H193.846Z" fill="white"/>
</g>
<defs>
<clipPath id="clip0_4_21">
<rect width="197" height="40" fill="white"/>
</clipPath>
</defs>
</svg>
