<svg width="197" height="65" viewBox="0 0 197 65" fill="none" xmlns="http://www.w3.org/2000/svg">
<path d="M50.9496 0C50.8724 0 50.7951 0 50.7178 0C49.456 0.0257516 48.1169 0.327046 46.7521 0.831778C44.0095 1.83867 41.0352 3.70695 38.0094 6.34134C37.4171 6.85766 36.812 7.41132 36.2068 7.99073C35.8077 7.60446 35.4085 7.24393 35.0093 6.88341C31.8033 4.04043 28.6487 2.04082 25.7645 0.963111C24.3224 0.424902 22.919 0.101719 21.6056 0.0708169C20.2923 0.0386274 19.0691 0.296144 18.0004 0.919333C15.9145 2.12065 14.7814 4.48722 14.2922 7.35982C13.79 10.2492 13.9188 13.7514 14.6913 17.6914C14.8458 18.4768 15.0261 19.2751 15.2321 20.0992C14.305 20.3567 13.4037 20.6399 12.5539 20.9361C8.8032 22.2365 5.76965 23.8846 3.59107 25.7388C1.41248 27.6058 0 29.7689 0 32.1252C0 34.5587 1.48458 36.812 3.78034 38.7691C6.0761 40.7391 9.2796 42.4902 13.2363 43.8293C13.8673 44.0482 14.511 44.2542 15.1806 44.4473C14.9617 45.3229 14.7686 46.1856 14.6141 47.0225C13.8801 50.9239 13.79 54.3746 14.305 57.1944C14.8329 60.0142 16.0046 62.319 18.0519 63.4907C20.1507 64.7139 22.8417 64.5465 25.7001 63.5422C28.5457 62.5378 31.6488 60.6322 34.7905 57.8768C35.2926 57.439 35.7948 56.9755 36.2969 56.4862C36.9536 57.1171 37.6103 57.7223 38.2669 58.276C41.267 60.864 44.2027 62.6666 46.9066 63.6194C49.6105 64.5722 52.1986 64.7139 54.2329 63.5293C56.3446 62.3061 57.542 59.8983 58.0957 56.924C58.6494 53.9497 58.5463 50.3058 57.7352 46.2113C57.6064 45.5804 57.4648 44.9237 57.3103 44.2799C57.7609 44.1383 58.2116 43.9967 58.6493 43.855C62.7181 42.516 66.0272 40.7906 68.4092 38.8335C70.7912 36.8763 72.3363 34.6102 72.3363 32.1252C72.3363 29.7303 70.8556 27.5671 68.6152 25.6873C66.3748 23.8203 63.2718 22.1722 59.4734 20.8717C58.7266 20.6142 57.9541 20.3695 57.1558 20.1378C57.2845 19.6099 57.4133 19.082 57.5163 18.5541C58.379 14.3565 58.5335 10.6225 58.0313 7.57999C57.5163 4.53873 56.3317 2.06657 54.1814 0.82534C53.2158 0.263954 52.1084 0.00901307 50.9496 0ZM50.7307 3.10951C51.5419 3.08891 52.1857 3.23827 52.6363 3.50222C53.6149 4.06232 54.5548 5.56879 54.9797 8.08215C55.4046 10.6097 55.2888 14.0089 54.4776 17.9231C54.3746 18.3995 54.2716 18.8759 54.1557 19.3652C51.1685 18.6699 47.9109 18.1549 44.486 17.833C42.516 15.0261 40.4558 12.4509 38.3699 10.1976C38.9365 9.66588 39.4773 9.15084 40.0309 8.67444C42.8507 6.22675 45.5675 4.55933 47.8208 3.7327C48.941 3.31939 49.9195 3.13011 50.7307 3.10951ZM21.2709 3.18033C21.361 3.18033 21.4769 3.18033 21.5799 3.18033C22.4426 3.20479 23.4855 3.41209 24.6829 3.85759C27.0778 4.75118 29.9749 6.54864 32.9492 9.20106C33.3097 9.52295 33.6703 9.85773 34.0308 10.2105C31.9449 12.4509 29.8719 15.0132 27.8761 17.8201C24.4641 18.142 21.2065 18.6571 18.2322 19.3266C18.039 18.5669 17.8716 17.8201 17.73 17.0991C17.009 13.4424 16.9317 10.2492 17.3309 7.88773C17.7429 5.52759 18.6313 4.12412 19.5455 3.59364C19.9704 3.34771 20.5498 3.19707 21.2709 3.17904V3.18033ZM36.2068 12.4252C37.636 13.9574 39.0524 15.6827 40.4558 17.5497C39.0524 17.4854 37.6103 17.4467 36.1682 17.4467C34.739 17.4467 33.3226 17.4854 31.9192 17.5497C33.3355 15.6827 34.7776 13.9703 36.2068 12.4252ZM94.663 15.4896V45.001H98.3455V33.2711H104.23L111.749 45.001H116.088L108.118 32.9621C112.148 32.6016 115.779 29.6916 115.779 24.3739C115.779 18.9403 111.929 15.4896 106.522 15.4896H94.663ZM188.244 17.7815V23.6271H184.768V26.5499H188.244V40.5331C188.244 43.7134 189.918 45.5289 193.009 45.5289C194.94 45.5289 196.227 44.9495 197 44.1512L195.97 41.679C195.584 42.1683 194.682 42.5675 193.781 42.5675C192.365 42.5675 191.592 41.4086 191.592 39.8249V26.5499H195.97V23.6271H191.592V17.7815H188.244ZM98.3455 18.7601H106.084C109.573 18.7601 111.968 21.0648 111.968 24.3739C111.968 27.6959 109.573 30.0393 106.084 30.0393H98.3455V18.7601ZM36.1682 20.5369C38.4214 20.5369 40.6232 20.6271 42.7606 20.7816C43.9709 22.5584 45.1426 24.4254 46.2628 26.3568C47.383 28.2882 48.4259 30.2324 49.3659 32.1509C48.4259 34.0952 47.3959 36.0652 46.2628 38.0094C45.1426 39.9537 43.9838 41.8207 42.7863 43.6104C40.6361 43.7649 38.4214 43.8422 36.1682 43.8422C33.9407 43.8422 31.7518 43.7649 29.6144 43.6361C28.4041 41.8464 27.2195 39.9794 26.0864 38.0352C24.9533 36.0909 23.9233 34.1338 22.9962 32.2024C23.9233 30.2582 24.9533 28.3139 26.0735 26.3697C27.1937 24.4254 28.3783 22.5584 29.5886 20.7816C31.726 20.6271 33.9278 20.5369 36.1682 20.5369ZM25.61 21.1807C24.8503 22.3653 24.1164 23.5756 23.3954 24.8246C22.6743 26.0735 22.0048 27.3225 21.361 28.5586C20.4468 26.4212 19.6871 24.3224 19.0562 22.3138C21.1163 21.8503 23.3052 21.4769 25.61 21.1807ZM46.7263 21.1936C49.044 21.4769 51.2586 21.876 53.3188 22.3395C52.7007 24.3482 51.9153 26.4341 51.0011 28.5714C50.3444 27.3225 49.6492 26.0607 48.9281 24.8117C48.2071 23.5756 47.4731 22.3653 46.7263 21.1936ZM16.0561 23.0735C16.9575 25.9963 18.142 29.0736 19.5841 32.2024C18.1163 35.3827 16.9188 38.4987 16.0046 41.4601C15.3995 41.2927 14.8072 41.0996 14.2278 40.9065C10.571 39.6575 7.68429 38.048 5.79026 36.4257C3.89493 34.8033 3.0902 33.2325 3.0902 32.1252C3.0902 31.0565 3.82541 29.6144 5.59969 28.095C7.37269 26.5757 10.0946 25.0563 13.5711 23.846C14.3565 23.5756 15.1935 23.3181 16.0561 23.0735ZM128.887 23.0992C122.771 23.0992 118.342 28.095 118.342 34.2883C118.342 40.9709 122.9 45.5289 129.144 45.5289C132.621 45.5289 135.582 44.3829 137.642 42.2584L136.097 40.0824C134.424 41.8078 131.977 42.7863 129.531 42.7863C124.934 42.7863 122.101 39.4258 121.844 35.3956H139.059V34.5587C139.059 28.1337 135.325 23.0992 128.887 23.0992ZM151.806 23.0992C148.329 23.0992 145.625 24.2452 143.308 26.6401L144.853 28.932C146.784 26.8976 148.844 25.9705 151.42 25.9705C154.51 25.9705 156.827 27.6058 156.827 30.4899V34.3398C155.025 32.3441 152.578 31.417 149.746 31.417C146.141 31.417 142.278 33.6703 142.278 38.4472C142.278 43.0954 146.141 45.5289 149.746 45.5289C152.578 45.5289 155.025 44.5117 156.827 42.5675V45.001H160.046V30.3097C160.046 25.1336 156.312 23.0992 151.806 23.0992ZM175.497 23.0992C169.188 23.0992 164.81 27.9663 164.81 34.2883C164.81 40.6618 169.188 45.5289 175.497 45.5289C179.36 45.5289 181.678 43.9323 183.352 41.8078L181.163 39.7734C179.746 41.679 177.944 42.5675 175.755 42.5675C171.12 42.5675 168.287 39.0266 168.287 34.2883C168.287 29.55 171.12 26.0607 175.755 26.0607C177.944 26.0607 179.746 26.8976 181.163 28.8418L183.352 26.8075C181.678 24.6829 179.36 23.0992 175.497 23.0992ZM56.3317 23.1121C57.0656 23.331 57.7867 23.5627 58.4691 23.7945C61.9971 25.0048 64.804 26.5242 66.6452 28.0693C68.4736 29.6015 69.2461 31.0693 69.2461 32.1252C69.2461 33.2454 68.4221 34.8162 66.4521 36.4386C64.4692 38.0609 61.4692 39.6704 57.6837 40.9322C57.2845 41.061 56.8854 41.1897 56.4733 41.3056C55.5463 38.3699 54.2973 35.2797 52.8037 32.1509C54.2458 29.0607 55.4304 26.022 56.3317 23.1121ZM36.1682 25.6744C34.458 25.6768 32.8187 26.3572 31.6094 27.5664C30.4002 28.7756 29.7198 30.415 29.7174 32.1252C29.7164 33.8375 30.3953 35.4802 31.6049 36.6922C32.8145 37.9043 34.4558 38.5864 36.1682 38.5888C37.0171 38.5893 37.8579 38.4225 38.6423 38.0978C39.4267 37.7732 40.1395 37.2971 40.7398 36.6968C41.3401 36.0965 41.8162 35.3837 42.1408 34.5993C42.4655 33.8149 42.6323 32.9741 42.6318 32.1252C42.6294 30.4128 41.9473 28.7715 40.7353 27.5619C39.5232 26.3522 37.8805 25.6734 36.1682 25.6744ZM128.758 25.8418C133.651 25.8418 135.711 29.7818 135.84 32.9621H121.844C122.011 29.6916 124.277 25.8418 128.758 25.8418ZM150.905 33.799C153.222 33.799 155.54 34.6875 156.827 36.4514V40.4816C155.54 42.2584 153.222 43.134 150.905 43.134C147.814 43.134 145.625 41.1897 145.625 38.4987C145.625 35.7433 147.814 33.799 150.905 33.799ZM51.0397 35.7304C51.9926 37.9193 52.8166 40.0567 53.4604 42.091C51.3616 42.5675 49.0955 42.9537 46.7263 43.237C47.4731 42.0395 48.2199 40.8035 48.941 39.5545C49.6749 38.2798 50.3702 37.0051 51.0397 35.7304ZM21.361 35.8334C22.0048 37.0824 22.6872 38.3313 23.4082 39.5803C24.1422 40.8421 24.9018 42.0782 25.6744 43.2885C23.331 43.031 21.0906 42.6705 19.0176 42.2198C19.6485 40.1726 20.4339 38.0352 21.361 35.8334ZM54.3102 45.0654C54.4647 45.6576 54.5935 46.2499 54.7093 46.8165C55.4561 50.602 55.5077 53.9111 55.057 56.3575C54.6063 58.8167 53.6407 60.2975 52.6878 60.8511C51.7608 61.3919 50.1384 61.482 47.9367 60.7095C45.7349 59.9241 43.0567 58.3275 40.2756 55.9326C39.6704 55.4175 39.0652 54.8639 38.4601 54.2716C40.5331 52.0054 42.5675 49.4045 44.5246 46.5718C48.001 46.2628 51.2973 45.7607 54.3102 45.0654ZM18.1807 45.207C21.1936 45.8765 24.4769 46.3401 27.9276 46.6105C29.9363 49.4431 32.035 52.0312 34.1338 54.2844C33.6703 54.7351 33.2196 55.16 32.7561 55.5592C29.859 58.0957 27.0135 59.7953 24.6701 60.6193C22.3138 61.4563 20.5498 61.3661 19.597 60.8125C18.6699 60.2846 17.7815 58.9197 17.3437 56.6278C16.9188 54.3359 16.9703 51.22 17.6527 47.6019C17.7944 46.8294 17.9746 46.031 18.1807 45.207ZM40.5331 46.8294C39.1296 48.735 37.7133 50.4861 36.2969 52.0569C34.842 50.4861 33.3741 48.735 31.9449 46.8551C33.3355 46.9066 34.739 46.9324 36.1682 46.9324C37.636 46.9324 39.091 46.8937 40.5331 46.8294Z" fill="white"/>
</svg>
