<svg width="198" height="45" viewBox="0 0 198 45" fill="none" xmlns="http://www.w3.org/2000/svg">
<path d="M98.917 11.3988C91.2243 11.3988 85.6778 16.4158 85.6778 23.9413C85.6778 31.4668 91.9211 36.4837 99.6138 36.4837C104.262 36.4837 108.359 34.6442 110.895 31.5434L105.565 28.4635C104.157 30.0035 102.018 30.9023 99.6138 30.9023C96.2762 30.9023 93.4402 29.1603 92.388 26.3731H111.912C112.066 25.5927 112.156 24.7844 112.156 23.9343C112.156 16.4158 106.61 11.3988 98.917 11.3988ZM92.3253 21.5025C93.1963 18.7222 95.5794 16.9733 98.9101 16.9733C102.248 16.9733 104.631 18.7222 105.495 21.5025H92.3253ZM173.949 11.3988C166.256 11.3988 160.709 16.4158 160.709 23.9413C160.709 31.4668 166.953 36.4837 174.646 36.4837C179.293 36.4837 183.39 34.6442 185.927 31.5434L180.596 28.4635C179.189 30.0035 177.05 30.9023 174.646 30.9023C171.308 30.9023 168.472 29.1603 167.42 26.3731H186.944C187.097 25.5927 187.188 24.7844 187.188 23.9343C187.188 16.4158 181.641 11.3988 173.949 11.3988ZM167.364 21.5025C168.235 18.7222 170.618 16.9733 173.949 16.9733C177.286 16.9733 179.669 18.7222 180.534 21.5025H167.364ZM140.168 23.9413C140.168 28.1221 142.899 30.9093 147.136 30.9093C150.007 30.9093 152.16 29.6063 153.268 27.481L158.619 30.5679C156.403 34.2609 152.25 36.4837 147.136 36.4837C139.436 36.4837 133.897 31.4668 133.897 23.9413C133.897 16.4158 139.443 11.3988 147.136 11.3988C152.25 11.3988 156.396 13.6216 158.619 17.3147L153.268 20.4015C152.16 18.2763 150.007 16.9733 147.136 16.9733C142.906 16.9733 140.168 19.7605 140.168 23.9413ZM197.64 3.73401V35.7869H191.369V3.73401H197.64ZM26.3869 0.25L52.1337 44.8454H0.640015L26.3869 0.25ZM90.7575 3.73401L71.4491 37.1805L52.1407 3.73401H59.3805L71.4491 24.6381L83.5177 3.73401H90.7575ZM131.806 12.0956V18.8477C131.109 18.6456 130.371 18.5062 129.576 18.5062C125.528 18.5062 122.608 21.2934 122.608 25.4743V35.7869H116.337V12.0956H122.608V18.5062C122.608 14.9665 126.726 12.0956 131.806 12.0956Z" fill="white"/>
</svg>
